<svg xmlns="http://www.w3.org/2000/svg" xmlns:xlink="http://www.w3.org/1999/xlink" width="328" zoomAndPan="magnify" viewBox="0 0 246 98.999996" height="132" preserveAspectRatio="xMidYMid meet" version="1.0"><defs><g/></defs><g fill="#ffffff" fill-opacity="1"><g transform="translate(27.694101, 63.276613)"><g><path d="M 3.078125 0 L 3.078125 -26.265625 L 12.140625 -26.265625 L 12.140625 -23.5 L 12.234375 -23.5 C 14.585938 -25.851562 17.097656 -27.03125 19.765625 -27.03125 C 21.671875 -27.03125 23.460938 -26.640625 25.140625 -25.859375 C 26.816406 -25.078125 28.082031 -23.863281 28.9375 -22.21875 C 31.59375 -25.425781 34.492188 -27.03125 37.640625 -27.03125 C 40.429688 -27.03125 42.832031 -26.242188 44.84375 -24.671875 C 46.863281 -23.109375 47.875 -20.65625 47.875 -17.3125 L 47.875 0 L 38.8125 0 L 38.8125 -14.84375 C 38.8125 -16.25 38.425781 -17.421875 37.65625 -18.359375 C 36.882812 -19.296875 35.734375 -19.765625 34.203125 -19.765625 C 32.867188 -19.765625 31.851562 -19.363281 31.15625 -18.5625 C 30.457031 -17.757812 30.070312 -16.796875 30 -15.671875 L 30 0 L 20.9375 0 L 20.9375 -14.84375 C 20.9375 -16.25 20.550781 -17.421875 19.78125 -18.359375 C 19.019531 -19.296875 17.867188 -19.765625 16.328125 -19.765625 C 14.929688 -19.765625 13.882812 -19.328125 13.1875 -18.453125 C 12.488281 -17.585938 12.140625 -16.554688 12.140625 -15.359375 L 12.140625 0 Z M 3.078125 0 "/></g></g></g><g fill="#ffffff" fill-opacity="1"><g transform="translate(73.311225, 63.276613)"><g><path d="M 3.9375 -40.90625 C 5 -41.96875 6.265625 -42.5 7.734375 -42.5 C 9.203125 -42.5 10.460938 -41.96875 11.515625 -40.90625 C 12.578125 -39.851562 13.109375 -38.59375 13.109375 -37.125 C 13.109375 -35.65625 12.578125 -34.390625 11.515625 -33.328125 C 10.460938 -32.273438 9.203125 -31.75 7.734375 -31.75 C 6.265625 -31.75 5 -32.273438 3.9375 -33.328125 C 2.882812 -34.390625 2.359375 -35.65625 2.359375 -37.125 C 2.359375 -38.59375 2.882812 -39.851562 3.9375 -40.90625 Z M 3.078125 -26.265625 L 3.078125 0 L 12.140625 0 L 12.140625 -26.265625 Z M 3.078125 -26.265625 "/></g></g></g><g fill="#ffffff" fill-opacity="1"><g transform="translate(83.959271, 63.276613)"><g><path d="M 17.046875 -19.609375 C 15.335938 -19.609375 13.867188 -18.976562 12.640625 -17.71875 C 11.410156 -16.457031 10.796875 -14.9375 10.796875 -13.15625 C 10.796875 -11.351562 11.410156 -9.816406 12.640625 -8.546875 C 13.867188 -7.285156 15.335938 -6.65625 17.046875 -6.65625 C 17.867188 -6.65625 18.644531 -6.753906 19.375 -6.953125 C 20.113281 -7.160156 20.65625 -7.367188 21 -7.578125 L 21.453125 -7.890625 L 24.53125 -1.59375 C 24.289062 -1.414062 23.957031 -1.195312 23.53125 -0.9375 C 23.101562 -0.6875 22.128906 -0.34375 20.609375 0.09375 C 19.085938 0.539062 17.457031 0.765625 15.71875 0.765625 C 11.863281 0.765625 8.472656 -0.585938 5.546875 -3.296875 C 2.628906 -6.015625 1.171875 -9.269531 1.171875 -13.0625 C 1.171875 -16.882812 2.628906 -20.164062 5.546875 -22.90625 C 8.472656 -25.65625 11.863281 -27.03125 15.71875 -27.03125 C 17.457031 -27.03125 19.0625 -26.828125 20.53125 -26.421875 C 22 -26.015625 23.039062 -25.601562 23.65625 -25.1875 L 24.53125 -24.578125 L 21.453125 -18.375 C 20.328125 -19.195312 18.859375 -19.609375 17.046875 -19.609375 Z M 17.046875 -19.609375 "/></g></g></g><g fill="#ffffff" fill-opacity="1"><g transform="translate(104.283971, 63.276613)"><g><path d="M 3.078125 0 L 3.078125 -44.03125 L 12.140625 -44.03125 L 12.140625 -23.5 L 12.234375 -23.5 C 14.585938 -25.851562 17.097656 -27.03125 19.765625 -27.03125 C 21.054688 -27.03125 22.34375 -26.859375 23.625 -26.515625 C 24.90625 -26.179688 26.132812 -25.65625 27.3125 -24.9375 C 28.488281 -24.21875 29.441406 -23.203125 30.171875 -21.890625 C 30.910156 -20.578125 31.28125 -19.050781 31.28125 -17.3125 L 31.28125 0 L 22.21875 0 L 22.21875 -14.84375 C 22.21875 -16.207031 21.78125 -17.398438 20.90625 -18.421875 C 20.039062 -19.453125 18.910156 -19.96875 17.515625 -19.96875 C 16.148438 -19.96875 14.910156 -19.4375 13.796875 -18.375 C 12.691406 -17.320312 12.140625 -16.144531 12.140625 -14.84375 L 12.140625 0 Z M 3.078125 0 "/></g></g></g><g fill="#ffffff" fill-opacity="1"><g transform="translate(133.312542, 63.276613)"><g><path d="M 4.859375 -3.25 C 2.398438 -5.925781 1.171875 -9.207031 1.171875 -13.09375 C 1.171875 -16.988281 2.398438 -20.285156 4.859375 -22.984375 C 7.316406 -25.679688 10.441406 -27.03125 14.234375 -27.03125 C 17.710938 -27.03125 20.582031 -25.941406 22.84375 -23.765625 L 22.84375 -26.265625 L 31.90625 -26.265625 L 31.90625 0 L 22.9375 0 L 22.9375 -2.96875 L 22.84375 -2.96875 C 20.582031 -0.476562 17.710938 0.765625 14.234375 0.765625 C 10.441406 0.765625 7.316406 -0.570312 4.859375 -3.25 Z M 12.5625 -17.5625 C 11.382812 -16.40625 10.796875 -14.921875 10.796875 -13.109375 C 10.796875 -11.296875 11.359375 -9.816406 12.484375 -8.671875 C 13.617188 -7.535156 15.109375 -6.96875 16.953125 -6.96875 C 18.722656 -6.96875 20.179688 -7.546875 21.328125 -8.703125 C 22.472656 -9.867188 23.046875 -11.335938 23.046875 -13.109375 C 23.046875 -14.921875 22.457031 -16.40625 21.28125 -17.5625 C 20.101562 -18.71875 18.660156 -19.296875 16.953125 -19.296875 C 15.210938 -19.296875 13.75 -18.71875 12.5625 -17.5625 Z M 12.5625 -17.5625 "/></g></g></g><g fill="#ffffff" fill-opacity="1"><g transform="translate(163.467504, 63.276613)"><g><path d="M 29.640625 -11.875 L 10.59375 -11.875 C 10.59375 -10.03125 11.191406 -8.664062 12.390625 -7.78125 C 13.585938 -6.894531 14.882812 -6.453125 16.28125 -6.453125 C 17.75 -6.453125 18.910156 -6.644531 19.765625 -7.03125 C 20.617188 -7.425781 21.59375 -8.207031 22.6875 -9.375 L 29.234375 -6.09375 C 26.503906 -1.519531 21.960938 0.765625 15.609375 0.765625 C 11.648438 0.765625 8.253906 -0.585938 5.421875 -3.296875 C 2.585938 -6.015625 1.171875 -9.285156 1.171875 -13.109375 C 1.171875 -16.929688 2.585938 -20.207031 5.421875 -22.9375 C 8.253906 -25.664062 11.648438 -27.03125 15.609375 -27.03125 C 19.773438 -27.03125 23.164062 -25.828125 25.78125 -23.421875 C 28.394531 -21.015625 29.703125 -17.578125 29.703125 -13.109375 C 29.703125 -12.492188 29.679688 -12.082031 29.640625 -11.875 Z M 10.859375 -16.890625 L 20.84375 -16.890625 C 20.632812 -18.253906 20.09375 -19.300781 19.21875 -20.03125 C 18.351562 -20.769531 17.238281 -21.140625 15.875 -21.140625 C 14.375 -21.140625 13.175781 -20.75 12.28125 -19.96875 C 11.394531 -19.1875 10.921875 -18.160156 10.859375 -16.890625 Z M 10.859375 -16.890625 "/></g></g></g><g fill="#ffffff" fill-opacity="1"><g transform="translate(189.526523, 63.276613)"><g><path d="M 3.078125 0 L 3.078125 -44.03125 L 12.140625 -44.03125 L 12.140625 0 Z M 3.078125 0 "/></g></g></g><g fill="#ffffff" fill-opacity="1"><g transform="translate(199.918558, 63.276613)"><g><path d="M 8.90625 -10.953125 C 10.539062 -10.953125 11.929688 -10.378906 13.078125 -9.234375 C 14.222656 -8.097656 14.796875 -6.707031 14.796875 -5.0625 C 14.796875 -3.457031 14.222656 -2.082031 13.078125 -0.9375 C 11.929688 0.195312 10.539062 0.765625 8.90625 0.765625 C 7.300781 0.765625 5.925781 0.195312 4.78125 -0.9375 C 3.644531 -2.082031 3.078125 -3.457031 3.078125 -5.0625 C 3.078125 -6.707031 3.644531 -8.097656 4.78125 -9.234375 C 5.925781 -10.378906 7.300781 -10.953125 8.90625 -10.953125 Z M 8.90625 -10.953125 "/></g></g></g><g fill="#ffffff" fill-opacity="1"><g transform="translate(36.548212, 72.785897)"><g><path d="M 2.75 0.09375 C 2.289062 0.09375 1.882812 0.03125 1.53125 -0.09375 C 1.1875 -0.21875 0.859375 -0.425781 0.546875 -0.71875 C 0.421875 -0.832031 0.359375 -0.957031 0.359375 -1.09375 C 0.359375 -1.207031 0.398438 -1.304688 0.484375 -1.390625 C 0.566406 -1.484375 0.671875 -1.53125 0.796875 -1.53125 C 0.898438 -1.53125 0.988281 -1.5 1.0625 -1.4375 C 1.3125 -1.207031 1.566406 -1.035156 1.828125 -0.921875 C 2.085938 -0.816406 2.382812 -0.765625 2.71875 -0.765625 C 3.113281 -0.765625 3.445312 -0.851562 3.71875 -1.03125 C 3.988281 -1.207031 4.125 -1.429688 4.125 -1.703125 C 4.113281 -2.023438 3.972656 -2.273438 3.703125 -2.453125 C 3.441406 -2.628906 3.046875 -2.78125 2.515625 -2.90625 C 1.867188 -3.03125 1.375 -3.238281 1.03125 -3.53125 C 0.6875 -3.832031 0.515625 -4.25 0.515625 -4.78125 C 0.515625 -5.144531 0.609375 -5.460938 0.796875 -5.734375 C 0.992188 -6.015625 1.265625 -6.226562 1.609375 -6.375 C 1.953125 -6.519531 2.335938 -6.59375 2.765625 -6.59375 C 3.148438 -6.59375 3.507812 -6.53125 3.84375 -6.40625 C 4.1875 -6.289062 4.460938 -6.128906 4.671875 -5.921875 C 4.816406 -5.796875 4.890625 -5.660156 4.890625 -5.515625 C 4.890625 -5.410156 4.847656 -5.3125 4.765625 -5.21875 C 4.679688 -5.132812 4.582031 -5.09375 4.46875 -5.09375 C 4.375 -5.09375 4.300781 -5.117188 4.25 -5.171875 C 4.082031 -5.328125 3.859375 -5.460938 3.578125 -5.578125 C 3.296875 -5.691406 3.023438 -5.75 2.765625 -5.75 C 2.347656 -5.75 2.015625 -5.660156 1.765625 -5.484375 C 1.523438 -5.316406 1.40625 -5.09375 1.40625 -4.8125 C 1.40625 -4.507812 1.523438 -4.273438 1.765625 -4.109375 C 2.015625 -3.953125 2.378906 -3.816406 2.859375 -3.703125 C 3.347656 -3.597656 3.742188 -3.472656 4.046875 -3.328125 C 4.359375 -3.191406 4.597656 -2.992188 4.765625 -2.734375 C 4.929688 -2.484375 5.015625 -2.15625 5.015625 -1.75 C 5.015625 -1.382812 4.910156 -1.0625 4.703125 -0.78125 C 4.503906 -0.507812 4.226562 -0.296875 3.875 -0.140625 C 3.53125 0.015625 3.15625 0.09375 2.75 0.09375 Z M 2.75 0.09375 "/></g></g></g><g fill="#ffffff" fill-opacity="1"><g transform="translate(48.024958, 72.785897)"><g><path d="M 5.265625 -2.4375 C 5.265625 -1.945312 5.15625 -1.507812 4.9375 -1.125 C 4.726562 -0.75 4.4375 -0.453125 4.0625 -0.234375 C 3.6875 -0.015625 3.269531 0.09375 2.8125 0.09375 C 2.363281 0.09375 1.953125 -0.015625 1.578125 -0.234375 C 1.203125 -0.453125 0.90625 -0.75 0.6875 -1.125 C 0.46875 -1.507812 0.359375 -1.945312 0.359375 -2.4375 C 0.359375 -2.914062 0.46875 -3.347656 0.6875 -3.734375 C 0.90625 -4.128906 1.203125 -4.4375 1.578125 -4.65625 C 1.953125 -4.875 2.363281 -4.984375 2.8125 -4.984375 C 3.269531 -4.984375 3.6875 -4.875 4.0625 -4.65625 C 4.4375 -4.4375 4.726562 -4.128906 4.9375 -3.734375 C 5.15625 -3.347656 5.265625 -2.914062 5.265625 -2.4375 Z M 4.390625 -2.4375 C 4.390625 -2.769531 4.316406 -3.066406 4.171875 -3.328125 C 4.035156 -3.597656 3.847656 -3.804688 3.609375 -3.953125 C 3.367188 -4.097656 3.101562 -4.171875 2.8125 -4.171875 C 2.519531 -4.171875 2.253906 -4.097656 2.015625 -3.953125 C 1.785156 -3.804688 1.597656 -3.597656 1.453125 -3.328125 C 1.316406 -3.066406 1.25 -2.769531 1.25 -2.4375 C 1.25 -2.101562 1.316406 -1.804688 1.453125 -1.546875 C 1.597656 -1.285156 1.785156 -1.082031 2.015625 -0.9375 C 2.253906 -0.789062 2.519531 -0.71875 2.8125 -0.71875 C 3.101562 -0.71875 3.367188 -0.789062 3.609375 -0.9375 C 3.847656 -1.082031 4.035156 -1.285156 4.171875 -1.546875 C 4.316406 -1.804688 4.390625 -2.101562 4.390625 -2.4375 Z M 4.390625 -2.4375 "/></g></g></g><g fill="#ffffff" fill-opacity="1"><g transform="translate(59.724737, 72.785897)"><g><path d="M 2.75 -6.078125 C 2.539062 -6.078125 2.382812 -6.015625 2.28125 -5.890625 C 2.1875 -5.765625 2.140625 -5.613281 2.140625 -5.4375 L 2.140625 -4.78125 L 3.0625 -4.78125 C 3.1875 -4.78125 3.285156 -4.742188 3.359375 -4.671875 C 3.441406 -4.597656 3.484375 -4.5 3.484375 -4.375 C 3.484375 -4.257812 3.441406 -4.164062 3.359375 -4.09375 C 3.285156 -4.019531 3.1875 -3.984375 3.0625 -3.984375 L 2.140625 -3.984375 L 2.140625 -0.453125 C 2.140625 -0.328125 2.097656 -0.21875 2.015625 -0.125 C 1.929688 -0.0390625 1.828125 0 1.703125 0 C 1.578125 0 1.472656 -0.0390625 1.390625 -0.125 C 1.304688 -0.21875 1.265625 -0.328125 1.265625 -0.453125 L 1.265625 -3.984375 L 0.6875 -3.984375 C 0.570312 -3.984375 0.472656 -4.019531 0.390625 -4.09375 C 0.304688 -4.164062 0.265625 -4.257812 0.265625 -4.375 C 0.265625 -4.5 0.304688 -4.597656 0.390625 -4.671875 C 0.472656 -4.742188 0.570312 -4.78125 0.6875 -4.78125 L 1.265625 -4.78125 L 1.265625 -5.4375 C 1.265625 -5.875 1.398438 -6.21875 1.671875 -6.46875 C 1.953125 -6.726562 2.347656 -6.859375 2.859375 -6.859375 C 3.066406 -6.859375 3.25 -6.816406 3.40625 -6.734375 C 3.570312 -6.660156 3.65625 -6.546875 3.65625 -6.390625 C 3.65625 -6.273438 3.617188 -6.175781 3.546875 -6.09375 C 3.484375 -6.019531 3.398438 -5.984375 3.296875 -5.984375 C 3.273438 -5.984375 3.207031 -6 3.09375 -6.03125 C 2.957031 -6.0625 2.84375 -6.078125 2.75 -6.078125 Z M 2.75 -6.078125 "/></g></g></g><g fill="#ffffff" fill-opacity="1"><g transform="translate(69.417232, 72.785897)"><g><path d="M 1.984375 -4 L 1.984375 -1.234375 C 1.984375 -0.921875 2.125 -0.765625 2.40625 -0.765625 C 2.445312 -0.765625 2.503906 -0.773438 2.578125 -0.796875 C 2.648438 -0.828125 2.707031 -0.84375 2.75 -0.84375 C 2.832031 -0.84375 2.898438 -0.804688 2.953125 -0.734375 C 3.015625 -0.660156 3.046875 -0.570312 3.046875 -0.46875 C 3.046875 -0.34375 2.96875 -0.234375 2.8125 -0.140625 C 2.664062 -0.046875 2.5 0 2.3125 0 C 2.113281 0 1.925781 -0.0195312 1.75 -0.0625 C 1.582031 -0.101562 1.429688 -0.210938 1.296875 -0.390625 C 1.160156 -0.566406 1.09375 -0.835938 1.09375 -1.203125 L 1.09375 -4 L 0.5625 -4 C 0.4375 -4 0.335938 -4.035156 0.265625 -4.109375 C 0.191406 -4.191406 0.15625 -4.296875 0.15625 -4.421875 C 0.15625 -4.535156 0.191406 -4.628906 0.265625 -4.703125 C 0.335938 -4.773438 0.4375 -4.8125 0.5625 -4.8125 L 1.09375 -4.8125 L 1.09375 -5.59375 C 1.09375 -5.71875 1.132812 -5.820312 1.21875 -5.90625 C 1.300781 -6 1.410156 -6.046875 1.546875 -6.046875 C 1.671875 -6.046875 1.773438 -6 1.859375 -5.90625 C 1.941406 -5.820312 1.984375 -5.71875 1.984375 -5.59375 L 1.984375 -4.8125 L 2.75 -4.8125 C 2.863281 -4.8125 2.957031 -4.769531 3.03125 -4.6875 C 3.113281 -4.613281 3.15625 -4.519531 3.15625 -4.40625 C 3.15625 -4.289062 3.113281 -4.191406 3.03125 -4.109375 C 2.957031 -4.035156 2.863281 -4 2.75 -4 Z M 1.984375 -4 "/></g></g></g><g fill="#ffffff" fill-opacity="1"><g transform="translate(79.016804, 72.785897)"><g><path d="M 6.34375 -4.921875 C 6.46875 -4.921875 6.570312 -4.878906 6.65625 -4.796875 C 6.738281 -4.710938 6.78125 -4.601562 6.78125 -4.46875 C 6.78125 -4.425781 6.765625 -4.367188 6.734375 -4.296875 L 5.3125 -0.28125 C 5.28125 -0.175781 5.21875 -0.0976562 5.125 -0.046875 C 5.039062 -0.00390625 4.953125 0.0078125 4.859375 0 C 4.691406 -0.0078125 4.5625 -0.101562 4.46875 -0.28125 L 3.5 -2.8125 L 2.609375 -0.28125 C 2.578125 -0.195312 2.523438 -0.128906 2.453125 -0.078125 C 2.390625 -0.0351562 2.316406 -0.0078125 2.234375 0 C 2.140625 0.0078125 2.046875 -0.0078125 1.953125 -0.0625 C 1.867188 -0.113281 1.8125 -0.1875 1.78125 -0.28125 L 0.328125 -4.296875 C 0.316406 -4.347656 0.3125 -4.40625 0.3125 -4.46875 C 0.3125 -4.59375 0.347656 -4.695312 0.421875 -4.78125 C 0.503906 -4.875 0.613281 -4.921875 0.75 -4.921875 C 0.957031 -4.921875 1.09375 -4.828125 1.15625 -4.640625 L 2.265625 -1.5 L 3.140625 -3.828125 C 3.210938 -4.003906 3.347656 -4.09375 3.546875 -4.09375 C 3.734375 -4.09375 3.863281 -4.003906 3.9375 -3.828125 L 4.828125 -1.546875 L 5.921875 -4.640625 C 5.992188 -4.828125 6.132812 -4.921875 6.34375 -4.921875 Z M 6.34375 -4.921875 "/></g></g></g><g fill="#ffffff" fill-opacity="1"><g transform="translate(92.156995, 72.785897)"><g><path d="M 4.609375 -4.9375 C 4.742188 -4.9375 4.851562 -4.894531 4.9375 -4.8125 C 5.019531 -4.726562 5.0625 -4.617188 5.0625 -4.484375 L 5.0625 -0.453125 C 5.0625 -0.328125 5.019531 -0.21875 4.9375 -0.125 C 4.851562 -0.0390625 4.742188 0 4.609375 0 C 4.484375 0 4.378906 -0.0390625 4.296875 -0.125 C 4.210938 -0.207031 4.171875 -0.316406 4.171875 -0.453125 L 4.171875 -0.6875 C 4.015625 -0.46875 3.796875 -0.28125 3.515625 -0.125 C 3.234375 0.0195312 2.929688 0.09375 2.609375 0.09375 C 2.191406 0.09375 1.8125 -0.015625 1.46875 -0.234375 C 1.125 -0.453125 0.851562 -0.753906 0.65625 -1.140625 C 0.457031 -1.523438 0.359375 -1.957031 0.359375 -2.4375 C 0.359375 -2.925781 0.457031 -3.363281 0.65625 -3.75 C 0.851562 -4.132812 1.117188 -4.4375 1.453125 -4.65625 C 1.796875 -4.875 2.171875 -4.984375 2.578125 -4.984375 C 2.910156 -4.984375 3.21875 -4.914062 3.5 -4.78125 C 3.78125 -4.644531 4.003906 -4.472656 4.171875 -4.265625 L 4.171875 -4.484375 C 4.171875 -4.609375 4.210938 -4.710938 4.296875 -4.796875 C 4.378906 -4.890625 4.484375 -4.9375 4.609375 -4.9375 Z M 2.71875 -0.71875 C 3.007812 -0.71875 3.265625 -0.789062 3.484375 -0.9375 C 3.710938 -1.09375 3.890625 -1.300781 4.015625 -1.5625 C 4.148438 -1.820312 4.21875 -2.113281 4.21875 -2.4375 C 4.21875 -2.757812 4.148438 -3.050781 4.015625 -3.3125 C 3.890625 -3.570312 3.710938 -3.78125 3.484375 -3.9375 C 3.265625 -4.09375 3.007812 -4.171875 2.71875 -4.171875 C 2.425781 -4.171875 2.164062 -4.09375 1.9375 -3.9375 C 1.707031 -3.789062 1.53125 -3.585938 1.40625 -3.328125 C 1.28125 -3.066406 1.21875 -2.769531 1.21875 -2.4375 C 1.21875 -2.113281 1.28125 -1.820312 1.40625 -1.5625 C 1.53125 -1.300781 1.707031 -1.09375 1.9375 -0.9375 C 2.164062 -0.789062 2.425781 -0.71875 2.71875 -0.71875 Z M 2.71875 -0.71875 "/></g></g></g><g fill="#ffffff" fill-opacity="1"><g transform="translate(103.931117, 72.785897)"><g><path d="M 3.09375 -4.984375 C 3.25 -4.984375 3.382812 -4.941406 3.5 -4.859375 C 3.625 -4.773438 3.6875 -4.671875 3.6875 -4.546875 C 3.6875 -4.398438 3.644531 -4.285156 3.5625 -4.203125 C 3.488281 -4.128906 3.394531 -4.09375 3.28125 -4.09375 C 3.226562 -4.09375 3.144531 -4.109375 3.03125 -4.140625 C 2.894531 -4.191406 2.789062 -4.21875 2.71875 -4.21875 C 2.53125 -4.21875 2.34375 -4.148438 2.15625 -4.015625 C 1.976562 -3.878906 1.832031 -3.691406 1.71875 -3.453125 C 1.601562 -3.222656 1.546875 -2.96875 1.546875 -2.6875 L 1.546875 -0.453125 C 1.546875 -0.328125 1.503906 -0.21875 1.421875 -0.125 C 1.335938 -0.0390625 1.226562 0 1.09375 0 C 0.96875 0 0.863281 -0.0390625 0.78125 -0.125 C 0.695312 -0.207031 0.65625 -0.316406 0.65625 -0.453125 L 0.65625 -4.421875 C 0.65625 -4.546875 0.695312 -4.648438 0.78125 -4.734375 C 0.863281 -4.828125 0.96875 -4.875 1.09375 -4.875 C 1.226562 -4.875 1.335938 -4.828125 1.421875 -4.734375 C 1.503906 -4.648438 1.546875 -4.546875 1.546875 -4.421875 L 1.546875 -3.953125 C 1.679688 -4.253906 1.882812 -4.5 2.15625 -4.6875 C 2.425781 -4.875 2.738281 -4.972656 3.09375 -4.984375 Z M 3.09375 -4.984375 "/></g></g></g><g fill="#ffffff" fill-opacity="1"><g transform="translate(113.837356, 72.785897)"><g><path d="M 4.9375 -2.625 C 4.925781 -2.507812 4.878906 -2.410156 4.796875 -2.328125 C 4.710938 -2.253906 4.609375 -2.21875 4.484375 -2.21875 L 1.21875 -2.21875 C 1.257812 -1.769531 1.429688 -1.40625 1.734375 -1.125 C 2.035156 -0.851562 2.398438 -0.71875 2.828125 -0.71875 C 3.128906 -0.71875 3.375 -0.757812 3.5625 -0.84375 C 3.75 -0.9375 3.910156 -1.050781 4.046875 -1.1875 C 4.140625 -1.25 4.234375 -1.28125 4.328125 -1.28125 C 4.429688 -1.28125 4.515625 -1.238281 4.578125 -1.15625 C 4.648438 -1.082031 4.6875 -1 4.6875 -0.90625 C 4.6875 -0.769531 4.628906 -0.648438 4.515625 -0.546875 C 4.328125 -0.367188 4.082031 -0.21875 3.78125 -0.09375 C 3.488281 0.03125 3.1875 0.09375 2.875 0.09375 C 2.375 0.09375 1.929688 -0.0078125 1.546875 -0.21875 C 1.171875 -0.4375 0.878906 -0.734375 0.671875 -1.109375 C 0.460938 -1.484375 0.359375 -1.910156 0.359375 -2.390625 C 0.359375 -2.910156 0.460938 -3.363281 0.671875 -3.75 C 0.890625 -4.144531 1.171875 -4.445312 1.515625 -4.65625 C 1.867188 -4.875 2.25 -4.984375 2.65625 -4.984375 C 3.050781 -4.984375 3.421875 -4.878906 3.765625 -4.671875 C 4.117188 -4.472656 4.398438 -4.191406 4.609375 -3.828125 C 4.816406 -3.472656 4.925781 -3.070312 4.9375 -2.625 Z M 2.65625 -4.171875 C 2.3125 -4.171875 2.007812 -4.070312 1.75 -3.875 C 1.5 -3.675781 1.332031 -3.375 1.25 -2.96875 L 4 -2.96875 L 4 -3.046875 C 3.96875 -3.367188 3.816406 -3.632812 3.546875 -3.84375 C 3.285156 -4.0625 2.988281 -4.171875 2.65625 -4.171875 Z M 2.65625 -4.171875 "/></g></g></g><g fill="#ffffff" fill-opacity="1"><g transform="translate(125.202592, 72.785897)"><g/></g></g><g fill="#ffffff" fill-opacity="1"><g transform="translate(133.844992, 72.785897)"><g><path d="M 4.453125 -0.859375 C 4.585938 -0.859375 4.695312 -0.8125 4.78125 -0.71875 C 4.863281 -0.632812 4.90625 -0.535156 4.90625 -0.421875 C 4.90625 -0.296875 4.863281 -0.191406 4.78125 -0.109375 C 4.695312 -0.0351562 4.585938 0 4.453125 0 L 1.21875 0 C 1.09375 0 0.984375 -0.0390625 0.890625 -0.125 C 0.804688 -0.21875 0.765625 -0.328125 0.765625 -0.453125 L 0.765625 -6.0625 C 0.765625 -6.1875 0.804688 -6.289062 0.890625 -6.375 C 0.984375 -6.46875 1.09375 -6.515625 1.21875 -6.515625 L 4.453125 -6.515625 C 4.585938 -6.515625 4.695312 -6.472656 4.78125 -6.390625 C 4.863281 -6.304688 4.90625 -6.203125 4.90625 -6.078125 C 4.90625 -5.953125 4.863281 -5.847656 4.78125 -5.765625 C 4.695312 -5.691406 4.585938 -5.65625 4.453125 -5.65625 L 1.6875 -5.65625 L 1.6875 -3.75 L 4.03125 -3.75 C 4.164062 -3.75 4.273438 -3.707031 4.359375 -3.625 C 4.441406 -3.550781 4.484375 -3.453125 4.484375 -3.328125 C 4.484375 -3.203125 4.441406 -3.097656 4.359375 -3.015625 C 4.273438 -2.941406 4.164062 -2.90625 4.03125 -2.90625 L 1.6875 -2.90625 L 1.6875 -0.859375 Z M 4.453125 -0.859375 "/></g></g></g><g fill="#ffffff" fill-opacity="1"><g transform="translate(145.210221, 72.785897)"><g><path d="M 3.140625 -4.984375 C 4.253906 -4.984375 4.8125 -4.3125 4.8125 -2.96875 L 4.8125 -0.453125 C 4.8125 -0.328125 4.769531 -0.21875 4.6875 -0.125 C 4.601562 -0.0390625 4.5 0 4.375 0 C 4.25 0 4.144531 -0.0390625 4.0625 -0.125 C 3.976562 -0.21875 3.9375 -0.328125 3.9375 -0.453125 L 3.9375 -2.96875 C 3.9375 -3.332031 3.851562 -3.625 3.6875 -3.84375 C 3.519531 -4.0625 3.242188 -4.171875 2.859375 -4.171875 C 2.609375 -4.171875 2.382812 -4.113281 2.1875 -4 C 1.988281 -3.894531 1.832031 -3.75 1.71875 -3.5625 C 1.601562 -3.382812 1.546875 -3.1875 1.546875 -2.96875 L 1.546875 -0.453125 C 1.546875 -0.328125 1.503906 -0.21875 1.421875 -0.125 C 1.335938 -0.0390625 1.226562 0 1.09375 0 C 0.96875 0 0.863281 -0.0390625 0.78125 -0.125 C 0.695312 -0.207031 0.65625 -0.316406 0.65625 -0.453125 L 0.65625 -4.421875 C 0.65625 -4.546875 0.695312 -4.648438 0.78125 -4.734375 C 0.863281 -4.828125 0.96875 -4.875 1.09375 -4.875 C 1.226562 -4.875 1.335938 -4.828125 1.421875 -4.734375 C 1.503906 -4.648438 1.546875 -4.546875 1.546875 -4.421875 L 1.546875 -4.09375 C 1.703125 -4.34375 1.925781 -4.550781 2.21875 -4.71875 C 2.507812 -4.894531 2.816406 -4.984375 3.140625 -4.984375 Z M 3.140625 -4.984375 "/></g></g></g><g fill="#ffffff" fill-opacity="1"><g transform="translate(156.75201, 72.785897)"><g><path d="M 4.734375 -4.9375 C 4.859375 -4.9375 4.960938 -4.894531 5.046875 -4.8125 C 5.128906 -4.726562 5.171875 -4.617188 5.171875 -4.484375 L 5.171875 -0.390625 C 5.171875 0.109375 5.0625 0.523438 4.84375 0.859375 C 4.632812 1.203125 4.347656 1.453125 3.984375 1.609375 C 3.617188 1.773438 3.207031 1.859375 2.75 1.859375 C 2.5 1.859375 2.207031 1.8125 1.875 1.71875 C 1.550781 1.632812 1.34375 1.546875 1.25 1.453125 C 1.050781 1.359375 0.953125 1.238281 0.953125 1.09375 C 0.953125 1.050781 0.96875 1 1 0.9375 C 1.0625 0.78125 1.175781 0.703125 1.34375 0.703125 C 1.414062 0.703125 1.5 0.722656 1.59375 0.765625 C 2.09375 0.953125 2.484375 1.046875 2.765625 1.046875 C 3.253906 1.046875 3.628906 0.925781 3.890625 0.6875 C 4.160156 0.445312 4.296875 0.125 4.296875 -0.28125 L 4.296875 -0.796875 C 4.160156 -0.546875 3.9375 -0.332031 3.625 -0.15625 C 3.320312 0.0078125 3.003906 0.09375 2.671875 0.09375 C 2.242188 0.09375 1.851562 -0.015625 1.5 -0.234375 C 1.144531 -0.453125 0.863281 -0.753906 0.65625 -1.140625 C 0.457031 -1.523438 0.359375 -1.957031 0.359375 -2.4375 C 0.359375 -2.925781 0.457031 -3.363281 0.65625 -3.75 C 0.863281 -4.132812 1.140625 -4.4375 1.484375 -4.65625 C 1.835938 -4.875 2.226562 -4.984375 2.65625 -4.984375 C 2.988281 -4.984375 3.300781 -4.90625 3.59375 -4.75 C 3.894531 -4.59375 4.128906 -4.40625 4.296875 -4.1875 L 4.296875 -4.484375 C 4.296875 -4.609375 4.332031 -4.710938 4.40625 -4.796875 C 4.488281 -4.890625 4.597656 -4.9375 4.734375 -4.9375 Z M 2.765625 -0.71875 C 3.066406 -0.71875 3.335938 -0.789062 3.578125 -0.9375 C 3.816406 -1.082031 4 -1.285156 4.125 -1.546875 C 4.257812 -1.816406 4.328125 -2.113281 4.328125 -2.4375 C 4.328125 -2.769531 4.257812 -3.066406 4.125 -3.328125 C 4 -3.585938 3.816406 -3.789062 3.578125 -3.9375 C 3.335938 -4.09375 3.066406 -4.171875 2.765625 -4.171875 C 2.472656 -4.171875 2.207031 -4.09375 1.96875 -3.9375 C 1.738281 -3.789062 1.554688 -3.582031 1.421875 -3.3125 C 1.285156 -3.050781 1.21875 -2.757812 1.21875 -2.4375 C 1.21875 -2.125 1.285156 -1.832031 1.421875 -1.5625 C 1.554688 -1.300781 1.738281 -1.09375 1.96875 -0.9375 C 2.207031 -0.789062 2.472656 -0.71875 2.765625 -0.71875 Z M 2.765625 -0.71875 "/></g></g></g><g fill="#ffffff" fill-opacity="1"><g transform="translate(168.646941, 72.785897)"><g><path d="M 1.5 -0.453125 C 1.5 -0.328125 1.457031 -0.21875 1.375 -0.125 C 1.289062 -0.0390625 1.179688 0 1.046875 0 C 0.921875 0 0.816406 -0.0390625 0.734375 -0.125 C 0.648438 -0.21875 0.609375 -0.328125 0.609375 -0.453125 L 0.609375 -4.46875 C 0.609375 -4.59375 0.648438 -4.695312 0.734375 -4.78125 C 0.816406 -4.875 0.921875 -4.921875 1.046875 -4.921875 C 1.179688 -4.921875 1.289062 -4.875 1.375 -4.78125 C 1.457031 -4.695312 1.5 -4.59375 1.5 -4.46875 Z M 1.046875 -5.53125 C 0.867188 -5.53125 0.738281 -5.5625 0.65625 -5.625 C 0.582031 -5.695312 0.546875 -5.800781 0.546875 -5.9375 L 0.546875 -6.09375 C 0.546875 -6.238281 0.585938 -6.34375 0.671875 -6.40625 C 0.753906 -6.46875 0.882812 -6.5 1.0625 -6.5 C 1.226562 -6.5 1.347656 -6.460938 1.421875 -6.390625 C 1.503906 -6.328125 1.546875 -6.226562 1.546875 -6.09375 L 1.546875 -5.9375 C 1.546875 -5.789062 1.503906 -5.6875 1.421875 -5.625 C 1.347656 -5.5625 1.222656 -5.53125 1.046875 -5.53125 Z M 1.046875 -5.53125 "/></g></g></g><g fill="#ffffff" fill-opacity="1"><g transform="translate(176.824682, 72.785897)"><g><path d="M 3.140625 -4.984375 C 4.253906 -4.984375 4.8125 -4.3125 4.8125 -2.96875 L 4.8125 -0.453125 C 4.8125 -0.328125 4.769531 -0.21875 4.6875 -0.125 C 4.601562 -0.0390625 4.5 0 4.375 0 C 4.25 0 4.144531 -0.0390625 4.0625 -0.125 C 3.976562 -0.21875 3.9375 -0.328125 3.9375 -0.453125 L 3.9375 -2.96875 C 3.9375 -3.332031 3.851562 -3.625 3.6875 -3.84375 C 3.519531 -4.0625 3.242188 -4.171875 2.859375 -4.171875 C 2.609375 -4.171875 2.382812 -4.113281 2.1875 -4 C 1.988281 -3.894531 1.832031 -3.75 1.71875 -3.5625 C 1.601562 -3.382812 1.546875 -3.1875 1.546875 -2.96875 L 1.546875 -0.453125 C 1.546875 -0.328125 1.503906 -0.21875 1.421875 -0.125 C 1.335938 -0.0390625 1.226562 0 1.09375 0 C 0.96875 0 0.863281 -0.0390625 0.78125 -0.125 C 0.695312 -0.207031 0.65625 -0.316406 0.65625 -0.453125 L 0.65625 -4.421875 C 0.65625 -4.546875 0.695312 -4.648438 0.78125 -4.734375 C 0.863281 -4.828125 0.96875 -4.875 1.09375 -4.875 C 1.226562 -4.875 1.335938 -4.828125 1.421875 -4.734375 C 1.503906 -4.648438 1.546875 -4.546875 1.546875 -4.421875 L 1.546875 -4.09375 C 1.703125 -4.34375 1.925781 -4.550781 2.21875 -4.71875 C 2.507812 -4.894531 2.816406 -4.984375 3.140625 -4.984375 Z M 3.140625 -4.984375 "/></g></g></g><g fill="#ffffff" fill-opacity="1"><g transform="translate(188.366472, 72.785897)"><g><path d="M 4.9375 -2.625 C 4.925781 -2.507812 4.878906 -2.410156 4.796875 -2.328125 C 4.710938 -2.253906 4.609375 -2.21875 4.484375 -2.21875 L 1.21875 -2.21875 C 1.257812 -1.769531 1.429688 -1.40625 1.734375 -1.125 C 2.035156 -0.851562 2.398438 -0.71875 2.828125 -0.71875 C 3.128906 -0.71875 3.375 -0.757812 3.5625 -0.84375 C 3.75 -0.9375 3.910156 -1.050781 4.046875 -1.1875 C 4.140625 -1.25 4.234375 -1.28125 4.328125 -1.28125 C 4.429688 -1.28125 4.515625 -1.238281 4.578125 -1.15625 C 4.648438 -1.082031 4.6875 -1 4.6875 -0.90625 C 4.6875 -0.769531 4.628906 -0.648438 4.515625 -0.546875 C 4.328125 -0.367188 4.082031 -0.21875 3.78125 -0.09375 C 3.488281 0.03125 3.1875 0.09375 2.875 0.09375 C 2.375 0.09375 1.929688 -0.0078125 1.546875 -0.21875 C 1.171875 -0.4375 0.878906 -0.734375 0.671875 -1.109375 C 0.460938 -1.484375 0.359375 -1.910156 0.359375 -2.390625 C 0.359375 -2.910156 0.460938 -3.363281 0.671875 -3.75 C 0.890625 -4.144531 1.171875 -4.445312 1.515625 -4.65625 C 1.867188 -4.875 2.25 -4.984375 2.65625 -4.984375 C 3.050781 -4.984375 3.421875 -4.878906 3.765625 -4.671875 C 4.117188 -4.472656 4.398438 -4.191406 4.609375 -3.828125 C 4.816406 -3.472656 4.925781 -3.070312 4.9375 -2.625 Z M 2.65625 -4.171875 C 2.3125 -4.171875 2.007812 -4.070312 1.75 -3.875 C 1.5 -3.675781 1.332031 -3.375 1.25 -2.96875 L 4 -2.96875 L 4 -3.046875 C 3.96875 -3.367188 3.816406 -3.632812 3.546875 -3.84375 C 3.285156 -4.0625 2.988281 -4.171875 2.65625 -4.171875 Z M 2.65625 -4.171875 "/></g></g></g><g fill="#ffffff" fill-opacity="1"><g transform="translate(199.731701, 72.785897)"><g><path d="M 4.9375 -2.625 C 4.925781 -2.507812 4.878906 -2.410156 4.796875 -2.328125 C 4.710938 -2.253906 4.609375 -2.21875 4.484375 -2.21875 L 1.21875 -2.21875 C 1.257812 -1.769531 1.429688 -1.40625 1.734375 -1.125 C 2.035156 -0.851562 2.398438 -0.71875 2.828125 -0.71875 C 3.128906 -0.71875 3.375 -0.757812 3.5625 -0.84375 C 3.75 -0.9375 3.910156 -1.050781 4.046875 -1.1875 C 4.140625 -1.25 4.234375 -1.28125 4.328125 -1.28125 C 4.429688 -1.28125 4.515625 -1.238281 4.578125 -1.15625 C 4.648438 -1.082031 4.6875 -1 4.6875 -0.90625 C 4.6875 -0.769531 4.628906 -0.648438 4.515625 -0.546875 C 4.328125 -0.367188 4.082031 -0.21875 3.78125 -0.09375 C 3.488281 0.03125 3.1875 0.09375 2.875 0.09375 C 2.375 0.09375 1.929688 -0.0078125 1.546875 -0.21875 C 1.171875 -0.4375 0.878906 -0.734375 0.671875 -1.109375 C 0.460938 -1.484375 0.359375 -1.910156 0.359375 -2.390625 C 0.359375 -2.910156 0.460938 -3.363281 0.671875 -3.75 C 0.890625 -4.144531 1.171875 -4.445312 1.515625 -4.65625 C 1.867188 -4.875 2.25 -4.984375 2.65625 -4.984375 C 3.050781 -4.984375 3.421875 -4.878906 3.765625 -4.671875 C 4.117188 -4.472656 4.398438 -4.191406 4.609375 -3.828125 C 4.816406 -3.472656 4.925781 -3.070312 4.9375 -2.625 Z M 2.65625 -4.171875 C 2.3125 -4.171875 2.007812 -4.070312 1.75 -3.875 C 1.5 -3.675781 1.332031 -3.375 1.25 -2.96875 L 4 -2.96875 L 4 -3.046875 C 3.96875 -3.367188 3.816406 -3.632812 3.546875 -3.84375 C 3.285156 -4.0625 2.988281 -4.171875 2.65625 -4.171875 Z M 2.65625 -4.171875 "/></g></g></g><g fill="#ffffff" fill-opacity="1"><g transform="translate(211.096931, 72.785897)"><g><path d="M 3.09375 -4.984375 C 3.25 -4.984375 3.382812 -4.941406 3.5 -4.859375 C 3.625 -4.773438 3.6875 -4.671875 3.6875 -4.546875 C 3.6875 -4.398438 3.644531 -4.285156 3.5625 -4.203125 C 3.488281 -4.128906 3.394531 -4.09375 3.28125 -4.09375 C 3.226562 -4.09375 3.144531 -4.109375 3.03125 -4.140625 C 2.894531 -4.191406 2.789062 -4.21875 2.71875 -4.21875 C 2.53125 -4.21875 2.34375 -4.148438 2.15625 -4.015625 C 1.976562 -3.878906 1.832031 -3.691406 1.71875 -3.453125 C 1.601562 -3.222656 1.546875 -2.96875 1.546875 -2.6875 L 1.546875 -0.453125 C 1.546875 -0.328125 1.503906 -0.21875 1.421875 -0.125 C 1.335938 -0.0390625 1.226562 0 1.09375 0 C 0.96875 0 0.863281 -0.0390625 0.78125 -0.125 C 0.695312 -0.207031 0.65625 -0.316406 0.65625 -0.453125 L 0.65625 -4.421875 C 0.65625 -4.546875 0.695312 -4.648438 0.78125 -4.734375 C 0.863281 -4.828125 0.96875 -4.875 1.09375 -4.875 C 1.226562 -4.875 1.335938 -4.828125 1.421875 -4.734375 C 1.503906 -4.648438 1.546875 -4.546875 1.546875 -4.421875 L 1.546875 -3.953125 C 1.679688 -4.253906 1.882812 -4.5 2.15625 -4.6875 C 2.425781 -4.875 2.738281 -4.972656 3.09375 -4.984375 Z M 3.09375 -4.984375 "/></g></g></g></svg>